<svg width="40" height="40" viewBox="0 0 40 40" fill="none" xmlns="http://www.w3.org/2000/svg">
<g clip-path="url(#clip0_12_10)">
<path d="M18.3333 30C18.3333 31.8333 16.8333 33.3333 15 33.3333C13.1666 33.3333 11.6666 31.8333 11.6666 30C11.6666 28.1666 13.1666 26.6666 15 26.6666C16.8333 26.6666 18.3333 28.1666 18.3333 30ZM15 16.6666C13.1666 16.6666 11.6666 18.1666 11.6666 20C11.6666 21.8333 13.1666 23.3333 15 23.3333C16.8333 23.3333 18.3333 21.8333 18.3333 20C18.3333 18.1666 16.8333 16.6666 15 16.6666ZM15 6.66663C13.1666 6.66663 11.6666 8.16663 11.6666 9.99996C11.6666 11.8333 13.1666 13.3333 15 13.3333C16.8333 13.3333 18.3333 11.8333 18.3333 9.99996C18.3333 8.16663 16.8333 6.66663 15 6.66663ZM25 13.3333C26.8333 13.3333 28.3333 11.8333 28.3333 9.99996C28.3333 8.16663 26.8333 6.66663 25 6.66663C23.1666 6.66663 21.6666 8.16663 21.6666 9.99996C21.6666 11.8333 23.1666 13.3333 25 13.3333ZM25 16.6666C23.1666 16.6666 21.6666 18.1666 21.6666 20C21.6666 21.8333 23.1666 23.3333 25 23.3333C26.8333 23.3333 28.3333 21.8333 28.3333 20C28.3333 18.1666 26.8333 16.6666 25 16.6666ZM25 26.6666C23.1666 26.6666 21.6666 28.1666 21.6666 30C21.6666 31.8333 23.1666 33.3333 25 33.3333C26.8333 33.3333 28.3333 31.8333 28.3333 30C28.3333 28.1666 26.8333 26.6666 25 26.6666Z" fill="#7F7F7F"/>
</g>
<defs>
<clipPath id="clip0_12_10">
<rect width="40" height="40" fill="white"/>
</clipPath>
</defs>
</svg>
