<svg width="25" height="25" viewBox="0 0 25 25" fill="none" xmlns="http://www.w3.org/2000/svg">
<path d="M14.8438 20.3125C14.8438 20.9341 14.5968 21.5302 14.1573 21.9698C13.7177 22.4093 13.1216 22.6562 12.5 22.6562C11.8784 22.6562 11.2823 22.4093 10.8427 21.9698C10.4032 21.5302 10.1562 20.9341 10.1562 20.3125C10.1562 19.6909 10.4032 19.0948 10.8427 18.6552C11.2823 18.2157 11.8784 17.9688 12.5 17.9688C13.1216 17.9688 13.7177 18.2157 14.1573 18.6552C14.5968 19.0948 14.8438 19.6909 14.8438 20.3125ZM14.8438 12.5C14.8438 13.1216 14.5968 13.7177 14.1573 14.1573C13.7177 14.5968 13.1216 14.8438 12.5 14.8438C11.8784 14.8438 11.2823 14.5968 10.8427 14.1573C10.4032 13.7177 10.1562 13.1216 10.1562 12.5C10.1562 11.8784 10.4032 11.2823 10.8427 10.8427C11.2823 10.4032 11.8784 10.1562 12.5 10.1562C13.1216 10.1562 13.7177 10.4032 14.1573 10.8427C14.5968 11.2823 14.8438 11.8784 14.8438 12.5ZM14.8438 4.6875C14.8438 5.3091 14.5968 5.90524 14.1573 6.34478C13.7177 6.78432 13.1216 7.03125 12.5 7.03125C11.8784 7.03125 11.2823 6.78432 10.8427 6.34478C10.4032 5.90524 10.1562 5.3091 10.1562 4.6875C10.1562 4.0659 10.4032 3.46976 10.8427 3.03022C11.2823 2.59068 11.8784 2.34375 12.5 2.34375C13.1216 2.34375 13.7177 2.59068 14.1573 3.03022C14.5968 3.46976 14.8438 4.0659 14.8438 4.6875Z" fill="black"/>
</svg>
